REM DIRINDEX 1\2,1\3,1\4,1\5
REM DIRNAME folder01,folder02,folder03,folder04,folder05
TITLE ""
FILE "1Q_t_0060-0069.mp3" MP3
  TRACK 01 AUDIO
    TITLE "3:cjc004_1080"
    INDEX 01 00:00:00
  TRACK 02 AUDIO
    TITLE "0:"
    INDEX 01 00:00:66
  TRACK 03 AUDIO
    TITLE "4:cjc004_1081"
    INDEX 01 00:01:19
  TRACK 04 AUDIO
    TITLE "0:"
    INDEX 01 00:02:26
  TRACK 05 AUDIO
    TITLE "5:cjc004_1082"
    INDEX 01 00:02:53
  TRACK 06 AUDIO
    TITLE "0:"
    INDEX 01 00:06:73
  TRACK 07 AUDIO
    TITLE "3:cjc004_1083"
    INDEX 01 00:07:54
  TRACK 08 AUDIO
    TITLE "0:"
    INDEX 01 00:08:66
  TRACK 09 AUDIO
    TITLE "4:cjc004_1084"
    INDEX 01 00:09:16
  TRACK 10 AUDIO
    TITLE "0:"
    INDEX 01 00:10:45
  TRACK 11 AUDIO
    TITLE "5:cjc004_1085"
    INDEX 01 00:11:05
  TRACK 12 AUDIO
    TITLE "0:"
    INDEX 01 00:15:66
  TRACK 13 AUDIO
    TITLE "3:cjc004_1086"
    INDEX 01 00:16:40
  TRACK 14 AUDIO
    TITLE "0:"
    INDEX 01 00:17:53
  TRACK 15 AUDIO
    TITLE "4:cjc004_1087"
    INDEX 01 00:17:70
  TRACK 16 AUDIO
    TITLE "0:"
    INDEX 01 00:19:05
  TRACK 17 AUDIO
    TITLE "5:cjc004_1088"
    INDEX 01 00:19:36
  TRACK 18 AUDIO
    TITLE "0:"
    INDEX 01 00:23:69
  TRACK 19 AUDIO
    TITLE "3:cjc004_1089"
    INDEX 01 00:24:53
  TRACK 20 AUDIO
    TITLE "0:"
    INDEX 01 00:26:01
  TRACK 21 AUDIO
    TITLE "4:cjc004_1090"
    INDEX 01 00:26:22
  TRACK 22 AUDIO
    TITLE "0:"
    INDEX 01 00:27:43
  TRACK 23 AUDIO
    TITLE "5:cjc004_1091"
    INDEX 01 00:27:73
  TRACK 24 AUDIO
    TITLE "0:"
    INDEX 01 00:31:47
  TRACK 25 AUDIO
    TITLE "3:cjc004_1092"
    INDEX 01 00:32:27
  TRACK 26 AUDIO
    TITLE "0:"
    INDEX 01 00:33:26
  TRACK 27 AUDIO
    TITLE "4:cjc004_1093"
    INDEX 01 00:33:64
  TRACK 28 AUDIO
    TITLE "0:"
    INDEX 01 00:35:17
  TRACK 29 AUDIO
    TITLE "5:cjc004_1094"
    INDEX 01 00:35:39
  TRACK 30 AUDIO
    TITLE "0:"
    INDEX 01 00:40:38
  TRACK 31 AUDIO
    TITLE "3:cjc004_1095"
    INDEX 01 00:41:16
  TRACK 32 AUDIO
    TITLE "0:"
    INDEX 01 00:42:27
  TRACK 33 AUDIO
    TITLE "4:cjc004_1096"
    INDEX 01 00:42:61
  TRACK 34 AUDIO
    TITLE "0:"
    INDEX 01 00:44:07
  TRACK 35 AUDIO
    TITLE "5:cjc004_1097"
    INDEX 01 00:44:36
  TRACK 36 AUDIO
    TITLE "0:"
    INDEX 01 00:48:36
  TRACK 37 AUDIO
    TITLE "3:cjc004_1098"
    INDEX 01 00:49:14
  TRACK 38 AUDIO
    TITLE "0:"
    INDEX 01 00:50:21
  TRACK 39 AUDIO
    TITLE "4:cjc004_1099"
    INDEX 01 00:50:41
  TRACK 40 AUDIO
    TITLE "0:"
    INDEX 01 00:52:06
  TRACK 41 AUDIO
    TITLE "5:cjc004_1100"
    INDEX 01 00:52:36
  TRACK 42 AUDIO
    TITLE "0:"
    INDEX 01 00:57:25
  TRACK 43 AUDIO
    TITLE "3:cjc004_1101"
    INDEX 01 00:58:11
  TRACK 44 AUDIO
    TITLE "0:"
    INDEX 01 00:59:28
  TRACK 45 AUDIO
    TITLE "4:cjc004_1102"
    INDEX 01 00:59:57
  TRACK 46 AUDIO
    TITLE "0:"
    INDEX 01 01:01:01
  TRACK 47 AUDIO
    TITLE "5:cjc004_1103"
    INDEX 01 01:01:31
  TRACK 48 AUDIO
    TITLE "0:"
    INDEX 01 01:05:56
  TRACK 49 AUDIO
    TITLE "3:cjc004_1104"
    INDEX 01 01:06:40
  TRACK 50 AUDIO
    TITLE "0:"
    INDEX 01 01:07:55
  TRACK 51 AUDIO
    TITLE "4:cjc004_1105"
    INDEX 01 01:08:03
  TRACK 52 AUDIO
    TITLE "0:"
    INDEX 01 01:09:26
  TRACK 53 AUDIO
    TITLE "5:cjc004_1106"
    INDEX 01 01:09:48
  TRACK 54 AUDIO
    TITLE "0:"
    INDEX 01 01:14:43
  TRACK 55 AUDIO
    TITLE "3:cjc004_1107"
    INDEX 01 01:15:15
  TRACK 56 AUDIO
    TITLE "0:"
    INDEX 01 01:16:32
  TRACK 57 AUDIO
    TITLE "4:cjc004_1108"
    INDEX 01 01:16:52
  TRACK 58 AUDIO
    TITLE "0:"
    INDEX 01 01:18:00
  TRACK 59 AUDIO
    TITLE "5:cjc004_1109"
    INDEX 01 01:18:29
  TRACK 60 AUDIO
    TITLE "0:"
    INDEX 01 01:23:36
